<svg width="193" height="50" viewBox="0 0 193 50" fill="none" xmlns="http://www.w3.org/2000/svg">
<path d="M0 26.28V0.719999H9.072C11.832 0.719999 14.136 1.296 15.984 2.448C17.832 3.576 19.212 5.112 20.124 7.056C21.06 8.976 21.528 11.112 21.528 13.464C21.528 16.056 21.012 18.312 19.98 20.232C18.972 22.152 17.532 23.64 15.66 24.696C13.788 25.752 11.592 26.28 9.072 26.28H0ZM17.424 13.464C17.424 11.664 17.088 10.08 16.416 8.712C15.768 7.32 14.82 6.24 13.572 5.472C12.348 4.68 10.848 4.284 9.072 4.284H4.032V22.716H9.072C10.872 22.716 12.384 22.308 13.608 21.492C14.856 20.676 15.804 19.572 16.452 18.18C17.1 16.788 17.424 15.216 17.424 13.464Z" fill="white"/>
<path d="M33.7975 26.64C32.3335 26.64 31.0015 26.388 29.8015 25.884C28.6255 25.356 27.6055 24.648 26.7415 23.76C25.8775 22.848 25.2055 21.816 24.7255 20.664C24.2695 19.488 24.0415 18.24 24.0415 16.92C24.0415 15.144 24.4495 13.524 25.2655 12.06C26.0815 10.572 27.2215 9.384 28.6855 8.496C30.1495 7.584 31.8655 7.128 33.8335 7.128C35.8015 7.128 37.4935 7.584 38.9095 8.496C40.3495 9.384 41.4655 10.56 42.2575 12.024C43.0495 13.488 43.4455 15.06 43.4455 16.74C43.4455 17.028 43.4335 17.304 43.4095 17.568C43.3855 17.808 43.3615 18.012 43.3375 18.18H28.2535C28.3255 19.284 28.6255 20.256 29.1535 21.096C29.7055 21.912 30.4015 22.56 31.2415 23.04C32.0815 23.496 32.9815 23.724 33.9415 23.724C34.9975 23.724 35.9935 23.46 36.9295 22.932C37.8895 22.404 38.5375 21.708 38.8735 20.844L42.2575 21.816C41.8495 22.728 41.2255 23.556 40.3855 24.3C39.5695 25.02 38.5975 25.596 37.4695 26.028C36.3415 26.436 35.1175 26.64 33.7975 26.64ZM28.1455 15.552H39.5215C39.4495 14.472 39.1375 13.524 38.5855 12.708C38.0575 11.868 37.3735 11.22 36.5335 10.764C35.7175 10.284 34.8055 10.044 33.7975 10.044C32.8135 10.044 31.9015 10.284 31.0615 10.764C30.2455 11.22 29.5735 11.868 29.0455 12.708C28.5175 13.524 28.2175 14.472 28.1455 15.552Z" fill="white"/>
<path d="M51.4043 26.28L44.2403 7.452H48.3443L53.7083 22.608L59.0723 7.452H62.8883L55.7243 26.28H51.4043Z" fill="white"/>
<path d="M86.3224 19.692C86.3224 21.06 85.9624 22.236 85.2424 23.22C84.5464 24.204 83.5984 24.96 82.3984 25.488C81.1984 26.016 79.8784 26.28 78.4384 26.28H66.2344V0.719999H79.4104C80.6104 0.719999 81.6424 1.044 82.5064 1.692C83.3944 2.316 84.0664 3.132 84.5224 4.14C85.0024 5.124 85.2424 6.156 85.2424 7.236C85.2424 8.484 84.9184 9.66 84.2704 10.764C83.6464 11.844 82.7464 12.648 81.5704 13.176C83.0344 13.608 84.1864 14.4 85.0264 15.552C85.8904 16.68 86.3224 18.06 86.3224 19.692ZM82.1824 18.936C82.1824 18.216 82.0264 17.568 81.7144 16.992C81.4264 16.392 81.0184 15.912 80.4904 15.552C79.9864 15.168 79.3864 14.976 78.6904 14.976H70.2664V22.788H78.4384C79.1584 22.788 79.7944 22.62 80.3464 22.284C80.9224 21.924 81.3664 21.456 81.6784 20.88C82.0144 20.28 82.1824 19.632 82.1824 18.936ZM70.2664 4.212V11.736H77.6824C78.3544 11.736 78.9544 11.58 79.4824 11.268C80.0104 10.932 80.4304 10.488 80.7424 9.936C81.0544 9.36 81.2104 8.712 81.2104 7.992C81.2104 7.248 81.0664 6.6 80.7784 6.048C80.4904 5.472 80.0944 5.028 79.5904 4.716C79.1104 4.38 78.5464 4.212 77.8984 4.212H70.2664Z" fill="white"/>
<path d="M88.6553 20.772C88.6553 19.572 88.9913 18.528 89.6633 17.64C90.3593 16.728 91.3073 16.032 92.5073 15.552C93.7073 15.048 95.0993 14.796 96.6833 14.796C97.5233 14.796 98.3753 14.856 99.2393 14.976C100.127 15.096 100.907 15.288 101.579 15.552V14.364C101.579 13.044 101.183 12.012 100.391 11.268C99.5993 10.524 98.4593 10.152 96.9713 10.152C95.9153 10.152 94.9193 10.344 93.9833 10.728C93.0473 11.088 92.0513 11.604 90.9953 12.276L89.6633 9.612C90.9113 8.772 92.1593 8.148 93.4073 7.74C94.6793 7.332 96.0113 7.128 97.4033 7.128C99.9233 7.128 101.903 7.8 103.343 9.144C104.807 10.464 105.539 12.348 105.539 14.796V21.816C105.539 22.272 105.611 22.596 105.755 22.788C105.923 22.98 106.199 23.088 106.583 23.112V26.28C106.223 26.352 105.899 26.4 105.611 26.424C105.323 26.448 105.083 26.46 104.891 26.46C104.051 26.46 103.415 26.256 102.983 25.848C102.551 25.44 102.299 24.96 102.227 24.408L102.119 23.328C101.303 24.384 100.259 25.2 98.9873 25.776C97.7153 26.352 96.4313 26.64 95.1353 26.64C93.8873 26.64 92.7713 26.388 91.7873 25.884C90.8033 25.356 90.0353 24.648 89.4833 23.76C88.9313 22.872 88.6553 21.876 88.6553 20.772ZM100.643 21.924C100.931 21.612 101.159 21.3 101.327 20.988C101.495 20.676 101.579 20.4 101.579 20.16V18C100.907 17.736 100.199 17.544 99.4553 17.424C98.7113 17.28 97.9793 17.208 97.2593 17.208C95.8193 17.208 94.6433 17.496 93.7313 18.072C92.8433 18.648 92.3993 19.44 92.3993 20.448C92.3993 21 92.5433 21.528 92.8313 22.032C93.1433 22.536 93.5753 22.944 94.1273 23.256C94.7033 23.568 95.4113 23.724 96.2513 23.724C97.1153 23.724 97.9433 23.556 98.7353 23.22C99.5273 22.884 100.163 22.452 100.643 21.924Z" fill="white"/>
<path d="M127.228 26.28H123.268V15.732C123.268 13.98 122.98 12.696 122.404 11.88C121.852 11.064 121.024 10.656 119.92 10.656C119.152 10.656 118.384 10.848 117.616 11.232C116.872 11.616 116.2 12.144 115.6 12.816C115 13.464 114.568 14.22 114.304 15.084V26.28H110.344V7.452H113.944V11.232C114.424 10.392 115.048 9.672 115.816 9.072C116.608 8.448 117.496 7.968 118.48 7.632C119.464 7.296 120.508 7.128 121.612 7.128C122.74 7.128 123.664 7.332 124.384 7.74C125.128 8.148 125.704 8.712 126.112 9.432C126.544 10.128 126.832 10.944 126.976 11.88C127.144 12.792 127.228 13.764 127.228 14.796V26.28Z" fill="white"/>
<path d="M144.928 26.28L138.88 17.604L135.784 20.556V26.28H131.824V0H135.784V16.56L144.496 7.488H148.744L141.436 15.372L149.14 26.28H144.928Z" fill="white"/>
<path d="M80.14 45.28V35.7H78.68V34.88H80.14V34.54C80.14 33.7 80.26 32.9733 80.5 32.36C80.74 31.7467 81.08 31.28 81.52 30.96C81.96 30.64 82.48 30.48 83.08 30.48C83.48 30.48 83.8667 30.54 84.24 30.66C84.6133 30.78 84.92 30.94 85.16 31.14L84.8 31.86C84.6267 31.7 84.4 31.58 84.12 31.5C83.84 31.4067 83.5533 31.36 83.26 31.36C82.58 31.36 82.0533 31.6333 81.68 32.18C81.32 32.7133 81.14 33.4933 81.14 34.52V34.88H84.1V35.7H81.14V45.28H80.14Z" fill="white"/>
<path d="M89.997 45.48C89.2637 45.48 88.5837 45.34 87.957 45.06C87.3437 44.78 86.8104 44.3933 86.357 43.9C85.9037 43.3933 85.5504 42.8133 85.297 42.16C85.0437 41.5067 84.917 40.82 84.917 40.1C84.917 39.3667 85.0437 38.68 85.297 38.04C85.5504 37.3867 85.9037 36.8133 86.357 36.32C86.8237 35.8133 87.3637 35.42 87.977 35.14C88.6037 34.8467 89.277 34.7 89.997 34.7C90.717 34.7 91.3837 34.8467 91.997 35.14C92.6104 35.42 93.1504 35.8133 93.617 36.32C94.0837 36.8133 94.4437 37.3867 94.697 38.04C94.9504 38.68 95.077 39.3667 95.077 40.1C95.077 40.82 94.9504 41.5067 94.697 42.16C94.4437 42.8133 94.0837 43.3933 93.617 43.9C93.1637 44.3933 92.6237 44.78 91.997 45.06C91.3837 45.34 90.717 45.48 89.997 45.48ZM85.917 40.14C85.917 40.9533 86.097 41.7 86.457 42.38C86.8304 43.0467 87.3237 43.58 87.937 43.98C88.5504 44.38 89.2304 44.58 89.977 44.58C90.7237 44.58 91.4037 44.38 92.017 43.98C92.6437 43.5667 93.137 43.02 93.497 42.34C93.8704 41.6467 94.057 40.8933 94.057 40.08C94.057 39.2667 93.8704 38.52 93.497 37.84C93.137 37.16 92.6437 36.62 92.017 36.22C91.4037 35.8067 90.7304 35.6 89.997 35.6C89.2504 35.6 88.5704 35.8067 87.957 36.22C87.3437 36.6333 86.8504 37.18 86.477 37.86C86.1037 38.54 85.917 39.3 85.917 40.14Z" fill="white"/>
<path d="M102.393 35.78C101.46 35.8067 100.64 36.0867 99.933 36.62C99.2396 37.14 98.753 37.86 98.473 38.78V45.28H97.473V34.88H98.433V37.44C98.793 36.7067 99.273 36.1133 99.873 35.66C100.473 35.1933 101.106 34.9267 101.773 34.86C101.906 34.8467 102.026 34.84 102.133 34.84C102.24 34.84 102.326 34.84 102.393 34.84V35.78Z" fill="white"/>
<path d="M113.358 45.48C112.624 45.48 111.944 45.34 111.318 45.06C110.691 44.7667 110.144 44.3733 109.678 43.88C109.224 43.3733 108.864 42.7933 108.598 42.14C108.344 41.4733 108.218 40.7733 108.218 40.04C108.218 39.0533 108.438 38.16 108.878 37.36C109.318 36.56 109.924 35.92 110.698 35.44C111.471 34.9467 112.338 34.7 113.298 34.7C114.284 34.7 115.158 34.9467 115.918 35.44C116.678 35.9333 117.278 36.5867 117.718 37.4C118.171 38.2 118.398 39.08 118.398 40.04C118.398 40.12 118.398 40.2 118.398 40.28C118.398 40.36 118.391 40.4267 118.378 40.48H109.258C109.311 41.2667 109.531 41.98 109.918 42.62C110.304 43.26 110.798 43.7667 111.398 44.14C112.011 44.5 112.678 44.68 113.398 44.68C114.118 44.68 114.798 44.4933 115.438 44.12C116.078 43.7467 116.524 43.2667 116.778 42.68L117.658 42.92C117.458 43.4133 117.138 43.8533 116.698 44.24C116.271 44.6267 115.764 44.9333 115.178 45.16C114.604 45.3733 113.998 45.48 113.358 45.48ZM109.218 39.7H117.438C117.384 38.8867 117.171 38.1667 116.798 37.54C116.424 36.9133 115.931 36.42 115.318 36.06C114.718 35.7 114.051 35.52 113.318 35.52C112.584 35.52 111.918 35.7 111.318 36.06C110.718 36.42 110.231 36.9133 109.858 37.54C109.484 38.1667 109.271 38.8867 109.218 39.7Z" fill="white"/>
<path d="M123.525 45.28L119.185 34.88H120.245L124.065 44.22L127.905 34.88H128.905L124.565 45.28H123.525Z" fill="white"/>
<path d="M134.959 45.48C134.226 45.48 133.546 45.34 132.919 45.06C132.293 44.7667 131.746 44.3733 131.279 43.88C130.826 43.3733 130.466 42.7933 130.199 42.14C129.946 41.4733 129.819 40.7733 129.819 40.04C129.819 39.0533 130.039 38.16 130.479 37.36C130.919 36.56 131.526 35.92 132.299 35.44C133.073 34.9467 133.939 34.7 134.899 34.7C135.886 34.7 136.759 34.9467 137.519 35.44C138.279 35.9333 138.879 36.5867 139.319 37.4C139.773 38.2 139.999 39.08 139.999 40.04C139.999 40.12 139.999 40.2 139.999 40.28C139.999 40.36 139.993 40.4267 139.979 40.48H130.859C130.913 41.2667 131.133 41.98 131.519 42.62C131.906 43.26 132.399 43.7667 132.999 44.14C133.613 44.5 134.279 44.68 134.999 44.68C135.719 44.68 136.399 44.4933 137.039 44.12C137.679 43.7467 138.126 43.2667 138.379 42.68L139.259 42.92C139.059 43.4133 138.739 43.8533 138.299 44.24C137.873 44.6267 137.366 44.9333 136.779 45.16C136.206 45.3733 135.599 45.48 134.959 45.48ZM130.819 39.7H139.039C138.986 38.8867 138.773 38.1667 138.399 37.54C138.026 36.9133 137.533 36.42 136.919 36.06C136.319 35.7 135.653 35.52 134.919 35.52C134.186 35.52 133.519 35.7 132.919 36.06C132.319 36.42 131.833 36.9133 131.459 37.54C131.086 38.1667 130.873 38.8867 130.819 39.7Z" fill="white"/>
<path d="M147.12 35.78C146.186 35.8067 145.366 36.0867 144.66 36.62C143.966 37.14 143.48 37.86 143.2 38.78V45.28H142.2V34.88H143.16V37.44C143.52 36.7067 144 36.1133 144.6 35.66C145.2 35.1933 145.833 34.9267 146.5 34.86C146.633 34.8467 146.753 34.84 146.86 34.84C146.966 34.84 147.053 34.84 147.12 34.84V35.78Z" fill="white"/>
<path d="M149.716 48.8C149.929 48.8133 150.116 48.8133 150.276 48.8C150.449 48.8 150.576 48.7733 150.656 48.72C150.776 48.68 150.896 48.5733 151.016 48.4C151.149 48.24 151.323 47.9133 151.536 47.42C151.749 46.94 152.049 46.2267 152.436 45.28L147.796 34.88H148.856L152.976 44.22L156.796 34.88H157.816L152.116 48.56C152.036 48.7733 151.923 48.96 151.776 49.12C151.643 49.2933 151.476 49.4267 151.276 49.52C151.076 49.6267 150.836 49.6867 150.556 49.7C150.436 49.7133 150.309 49.72 150.176 49.72C150.043 49.7333 149.889 49.7333 149.716 49.72V48.8Z" fill="white"/>
<path d="M163.825 45.48C163.092 45.48 162.412 45.34 161.785 45.06C161.172 44.78 160.638 44.3933 160.185 43.9C159.732 43.3933 159.378 42.8133 159.125 42.16C158.872 41.5067 158.745 40.82 158.745 40.1C158.745 39.3667 158.872 38.68 159.125 38.04C159.378 37.3867 159.732 36.8133 160.185 36.32C160.652 35.8133 161.192 35.42 161.805 35.14C162.432 34.8467 163.105 34.7 163.825 34.7C164.545 34.7 165.212 34.8467 165.825 35.14C166.438 35.42 166.978 35.8133 167.445 36.32C167.912 36.8133 168.272 37.3867 168.525 38.04C168.778 38.68 168.905 39.3667 168.905 40.1C168.905 40.82 168.778 41.5067 168.525 42.16C168.272 42.8133 167.912 43.3933 167.445 43.9C166.992 44.3933 166.452 44.78 165.825 45.06C165.212 45.34 164.545 45.48 163.825 45.48ZM159.745 40.14C159.745 40.9533 159.925 41.7 160.285 42.38C160.658 43.0467 161.152 43.58 161.765 43.98C162.378 44.38 163.058 44.58 163.805 44.58C164.552 44.58 165.232 44.38 165.845 43.98C166.472 43.5667 166.965 43.02 167.325 42.34C167.698 41.6467 167.885 40.8933 167.885 40.08C167.885 39.2667 167.698 38.52 167.325 37.84C166.965 37.16 166.472 36.62 165.845 36.22C165.232 35.8067 164.558 35.6 163.825 35.6C163.078 35.6 162.398 35.8067 161.785 36.22C161.172 36.6333 160.678 37.18 160.305 37.86C159.932 38.54 159.745 39.3 159.745 40.14Z" fill="white"/>
<path d="M179.801 45.28H178.801V39.48C178.801 38.1467 178.608 37.1733 178.221 36.56C177.848 35.9333 177.248 35.62 176.421 35.62C175.834 35.62 175.254 35.76 174.681 36.04C174.121 36.32 173.628 36.7067 173.201 37.2C172.788 37.68 172.488 38.2267 172.301 38.84V45.28H171.301V34.88H172.241V37.36C172.521 36.8267 172.894 36.3667 173.361 35.98C173.828 35.58 174.348 35.2667 174.921 35.04C175.494 34.8133 176.088 34.7 176.701 34.7C177.274 34.7 177.754 34.8067 178.141 35.02C178.541 35.22 178.861 35.5133 179.101 35.9C179.354 36.2867 179.534 36.7667 179.641 37.34C179.748 37.9133 179.801 38.5667 179.801 39.3V45.28Z" fill="white"/>
<path d="M187.245 45.48C186.511 45.48 185.831 45.34 185.205 45.06C184.578 44.7667 184.031 44.3733 183.565 43.88C183.111 43.3733 182.751 42.7933 182.485 42.14C182.231 41.4733 182.105 40.7733 182.105 40.04C182.105 39.0533 182.325 38.16 182.765 37.36C183.205 36.56 183.811 35.92 184.585 35.44C185.358 34.9467 186.225 34.7 187.185 34.7C188.171 34.7 189.045 34.9467 189.805 35.44C190.565 35.9333 191.165 36.5867 191.605 37.4C192.058 38.2 192.285 39.08 192.285 40.04C192.285 40.12 192.285 40.2 192.285 40.28C192.285 40.36 192.278 40.4267 192.265 40.48H183.145C183.198 41.2667 183.418 41.98 183.805 42.62C184.191 43.26 184.685 43.7667 185.285 44.14C185.898 44.5 186.565 44.68 187.285 44.68C188.005 44.68 188.685 44.4933 189.325 44.12C189.965 43.7467 190.411 43.2667 190.665 42.68L191.545 42.92C191.345 43.4133 191.025 43.8533 190.585 44.24C190.158 44.6267 189.651 44.9333 189.065 45.16C188.491 45.3733 187.885 45.48 187.245 45.48ZM183.105 39.7H191.325C191.271 38.8867 191.058 38.1667 190.685 37.54C190.311 36.9133 189.818 36.42 189.205 36.06C188.605 35.7 187.938 35.52 187.205 35.52C186.471 35.52 185.805 35.7 185.205 36.06C184.605 36.42 184.118 36.9133 183.745 37.54C183.371 38.1667 183.158 38.8867 183.105 39.7Z" fill="white"/>
</svg>
